<svg xmlns="http://www.w3.org/2000/svg" width="400" height="480" viewBox="0 0 400 480">
  <!-- Dark Military Canvas Background -->
  <rect width="400" height="480" rx="16" fill="#0B1F33"/>
  <rect x="8" y="8" width="384" height="464" rx="12" fill="none" stroke="#D6A23A" stroke-width="2" stroke-dasharray="8 4"/>

  <!-- Military Header Badge -->
  <rect x="24" y="24" width="352" height="44" rx="8" fill="#122538" stroke="#3F5135" stroke-width="1.5"/>
  <text x="200" y="44" fill="#F2F4EF" font-family="'Courier New', monospace" font-size="14" font-weight="bold" text-anchor="middle">INDIAN ARMY LOGISTICS CORPS</text>
  <text x="200" y="60" fill="#D6A23A" font-family="'Courier New', monospace" font-size="11" font-weight="bold" text-anchor="middle">OFFICIAL CARGO RECEIPT PLAQUE — CNV-4354</text>

  <!-- White QR Card Background -->
  <rect x="50" y="84" width="300" height="300" rx="12" fill="#FFFFFF" stroke="#00F0FF" stroke-width="3"/>

  <!-- QR Finder Patterns (Top-Left, Top-Right, Bottom-Left) -->
  <!-- Top-Left Finder -->
  <rect x="70" y="104" width="70" height="70" fill="#0B1F33"/>
  <rect x="80" y="114" width="50" height="50" fill="#FFFFFF"/>
  <rect x="90" y="124" width="30" height="30" fill="#0B1F33"/>

  <!-- Top-Right Finder -->
  <rect x="260" y="104" width="70" height="70" fill="#0B1F33"/>
  <rect x="270" y="114" width="50" height="50" fill="#FFFFFF"/>
  <rect x="280" y="124" width="30" height="30" fill="#0B1F33"/>

  <!-- Bottom-Left Finder -->
  <rect x="70" y="294" width="70" height="70" fill="#0B1F33"/>
  <rect x="80" y="304" width="50" height="50" fill="#FFFFFF"/>
  <rect x="90" y="314" width="30" height="30" fill="#0B1F33"/>

  <!-- Dynamic Data Matrix Modules -->
  <rect x="160" y="104" width="20" height="20" fill="#0B1F33"/>
  <rect x="200" y="104" width="20" height="20" fill="#0B1F33"/>
  <rect x="230" y="104" width="15" height="15" fill="#0B1F33"/>
  <rect x="150" y="130" width="30" height="15" fill="#0B1F33"/>
  <rect x="190" y="130" width="15" height="30" fill="#0B1F33"/>
  <rect x="220" y="130" width="25" height="20" fill="#0B1F33"/>

  <rect x="70" y="190" width="20" height="30" fill="#0B1F33"/>
  <rect x="100" y="190" width="30" height="15" fill="#0B1F33"/>
  <rect x="140" y="175" width="20" height="40" fill="#0B1F33"/>
  <rect x="175" y="175" width="40" height="20" fill="#0B1F33"/>
  <rect x="230" y="165" width="30" height="30" fill="#0B1F33"/>
  <rect x="280" y="190" width="40" height="20" fill="#0B1F33"/>

  <rect x="70" y="235" width="40" height="20" fill="#0B1F33"/>
  <rect x="125" y="225" width="25" height="40" fill="#0B1F33"/>
  <rect x="160" y="210" width="35" height="35" fill="#0B1F33"/>
  <rect x="210" y="210" width="20" height="55" fill="#0B1F33"/>
  <rect x="245" y="225" width="40" height="20" fill="#0B1F33"/>
  <rect x="300" y="225" width="30" height="30" fill="#0B1F33"/>

  <rect x="150" y="280" width="30" height="30" fill="#0B1F33"/>
  <rect x="190" y="280" width="40" height="20" fill="#0B1F33"/>
  <rect x="240" y="270" width="20" height="40" fill="#0B1F33"/>
  <rect x="270" y="280" width="50" height="20" fill="#0B1F33"/>

  <rect x="160" y="325" width="20" height="35" fill="#0B1F33"/>
  <rect x="190" y="335" width="45" height="20" fill="#0B1F33"/>
  <rect x="245" y="325" width="30" height="30" fill="#0B1F33"/>
  <rect x="290" y="325" width="30" height="30" fill="#0B1F33"/>

  <!-- Footer Metadata & Encryption Key -->
  <text x="200" y="404" fill="#00F0FF" font-family="'Courier New', monospace" font-size="12" font-weight="bold" text-anchor="middle">MANIFEST: CNV-4354 (Post Foxtrot-4)</text>
  <text x="200" y="424" fill="#F2F4EF" font-family="'Courier New', monospace" font-size="11" text-anchor="middle">CARGO: 1,500L Kerosene Fuel + 600 MRE Rations</text>
  <text x="200" y="444" fill="#4ADE80" font-family="'Courier New', monospace" font-size="10" font-weight="bold" text-anchor="middle">AES256-88F9A2B0014 — VERIFIED SUPPLY MANIFEST</text>
</svg>
